<mxfile host="app.diagrams.net" modified="2023-08-30T16:57:10.925Z" agent="Mozilla/5.0 (Windows NT 10.0; Win64; x64) AppleWebKit/537.36 (KHTML, like Gecko) Chrome/116.0.0.0 Safari/537.36" etag="BQEApYsoeoXTHYR7b5mm" version="21.7.0" type="github">
  <diagram name="Página-1" id="aSP395trPARNyPkSzp0Z">
    <mxGraphModel dx="2503" dy="960" grid="1" gridSize="10" guides="1" tooltips="1" connect="1" arrows="1" fold="1" page="1" pageScale="1" pageWidth="2150" pageHeight="930" math="0" shadow="0">
      <root>
        <mxCell id="0" />
        <mxCell id="1" parent="0" />
        <mxCell id="MScTOehCrpyFGFz5a2Hk-1" value="Proceso de glosa automática" style="swimlane;childLayout=stackLayout;resizeParent=1;resizeParentMax=0;horizontal=1;startSize=20;horizontalStack=0;html=1;" parent="1" vertex="1">
          <mxGeometry x="20" y="10" width="2090" height="900" as="geometry" />
        </mxCell>
        <mxCell id="MScTOehCrpyFGFz5a2Hk-92" value="Si" style="edgeStyle=orthogonalEdgeStyle;rounded=0;orthogonalLoop=1;jettySize=auto;html=1;" parent="MScTOehCrpyFGFz5a2Hk-1" source="MScTOehCrpyFGFz5a2Hk-91" target="MScTOehCrpyFGFz5a2Hk-88" edge="1">
          <mxGeometry relative="1" as="geometry" />
        </mxCell>
        <mxCell id="MScTOehCrpyFGFz5a2Hk-4" value="modulo erip" style="swimlane;startSize=20;horizontal=0;html=1;" parent="MScTOehCrpyFGFz5a2Hk-1" vertex="1">
          <mxGeometry y="20" width="2090" height="270" as="geometry" />
        </mxCell>
        <mxCell id="MScTOehCrpyFGFz5a2Hk-5" value="" style="points=[[0.145,0.145,0],[0.5,0,0],[0.855,0.145,0],[1,0.5,0],[0.855,0.855,0],[0.5,1,0],[0.145,0.855,0],[0,0.5,0]];shape=mxgraph.bpmn.event;html=1;verticalLabelPosition=bottom;labelBackgroundColor=#ffffff;verticalAlign=top;align=center;perimeter=ellipsePerimeter;outlineConnect=0;aspect=fixed;outline=standard;symbol=general;fillColor=#f8cecc;strokeColor=#b85450;" parent="MScTOehCrpyFGFz5a2Hk-4" vertex="1">
          <mxGeometry x="40" y="80" width="40" height="40" as="geometry" />
        </mxCell>
        <mxCell id="MScTOehCrpyFGFz5a2Hk-6" value="Seleccionar opción &quot;PRIMERA VEZ&quot;, modalidad EVENTO y servicio ambulatorio" style="points=[[0.25,0,0],[0.5,0,0],[0.75,0,0],[1,0.25,0],[1,0.5,0],[1,0.75,0],[0.75,1,0],[0.5,1,0],[0.25,1,0],[0,0.75,0],[0,0.5,0],[0,0.25,0]];shape=mxgraph.bpmn.task;whiteSpace=wrap;rectStyle=rounded;size=10;html=1;container=1;expand=0;collapsible=0;taskMarker=manual;fillColor=#fff2cc;strokeColor=#d6b656;" parent="MScTOehCrpyFGFz5a2Hk-4" vertex="1">
          <mxGeometry x="270" y="60" width="140" height="80" as="geometry" />
        </mxCell>
        <mxCell id="MScTOehCrpyFGFz5a2Hk-7" style="edgeStyle=orthogonalEdgeStyle;rounded=0;orthogonalLoop=1;jettySize=auto;html=1;" parent="MScTOehCrpyFGFz5a2Hk-4" source="MScTOehCrpyFGFz5a2Hk-8" target="MScTOehCrpyFGFz5a2Hk-6" edge="1">
          <mxGeometry relative="1" as="geometry">
            <mxPoint x="270" y="100" as="targetPoint" />
          </mxGeometry>
        </mxCell>
        <mxCell id="MScTOehCrpyFGFz5a2Hk-8" value="Ingresar a OASIS módulo erip" style="points=[[0.25,0,0],[0.5,0,0],[0.75,0,0],[1,0.25,0],[1,0.5,0],[1,0.75,0],[0.75,1,0],[0.5,1,0],[0.25,1,0],[0,0.75,0],[0,0.5,0],[0,0.25,0]];shape=mxgraph.bpmn.task;whiteSpace=wrap;rectStyle=rounded;size=10;html=1;container=1;expand=0;collapsible=0;taskMarker=user;fillColor=#fff2cc;strokeColor=#d6b656;" parent="MScTOehCrpyFGFz5a2Hk-4" vertex="1">
          <mxGeometry x="110" y="60" width="120" height="80" as="geometry" />
        </mxCell>
        <mxCell id="MScTOehCrpyFGFz5a2Hk-9" style="edgeStyle=orthogonalEdgeStyle;rounded=0;orthogonalLoop=1;jettySize=auto;html=1;entryX=0;entryY=0.5;entryDx=0;entryDy=0;entryPerimeter=0;" parent="MScTOehCrpyFGFz5a2Hk-4" source="MScTOehCrpyFGFz5a2Hk-5" target="MScTOehCrpyFGFz5a2Hk-8" edge="1">
          <mxGeometry relative="1" as="geometry">
            <mxPoint x="110" y="100" as="targetPoint" />
          </mxGeometry>
        </mxCell>
        <mxCell id="MScTOehCrpyFGFz5a2Hk-11" style="edgeStyle=orthogonalEdgeStyle;rounded=0;orthogonalLoop=1;jettySize=auto;html=1;entryX=0;entryY=0.5;entryDx=0;entryDy=0;entryPerimeter=0;" parent="MScTOehCrpyFGFz5a2Hk-4" source="MScTOehCrpyFGFz5a2Hk-6" target="MScTOehCrpyFGFz5a2Hk-66" edge="1">
          <mxGeometry relative="1" as="geometry">
            <mxPoint x="460" y="100" as="targetPoint" />
          </mxGeometry>
        </mxCell>
        <mxCell id="MScTOehCrpyFGFz5a2Hk-68" style="edgeStyle=orthogonalEdgeStyle;rounded=0;orthogonalLoop=1;jettySize=auto;html=1;" parent="MScTOehCrpyFGFz5a2Hk-4" source="MScTOehCrpyFGFz5a2Hk-66" target="MScTOehCrpyFGFz5a2Hk-69" edge="1">
          <mxGeometry relative="1" as="geometry">
            <mxPoint x="550" y="100" as="targetPoint" />
          </mxGeometry>
        </mxCell>
        <mxCell id="MScTOehCrpyFGFz5a2Hk-66" value="Clic botón &lt;br&gt;validar" style="points=[[0.145,0.145,0],[0.5,0,0],[0.855,0.145,0],[1,0.5,0],[0.855,0.855,0],[0.5,1,0],[0.145,0.855,0],[0,0.5,0]];shape=mxgraph.bpmn.event;html=1;verticalLabelPosition=bottom;labelBackgroundColor=#ffffff;verticalAlign=top;align=center;perimeter=ellipsePerimeter;outlineConnect=0;aspect=fixed;outline=throwing;symbol=general;fillColor=#d5e8d4;strokeColor=#82b366;" parent="MScTOehCrpyFGFz5a2Hk-4" vertex="1">
          <mxGeometry x="450" y="75" width="50" height="50" as="geometry" />
        </mxCell>
        <mxCell id="MScTOehCrpyFGFz5a2Hk-70" style="edgeStyle=orthogonalEdgeStyle;rounded=0;orthogonalLoop=1;jettySize=auto;html=1;entryX=0;entryY=0.5;entryDx=0;entryDy=0;entryPerimeter=0;" parent="MScTOehCrpyFGFz5a2Hk-4" source="MScTOehCrpyFGFz5a2Hk-69" target="MScTOehCrpyFGFz5a2Hk-71" edge="1">
          <mxGeometry relative="1" as="geometry">
            <mxPoint x="710" y="100" as="targetPoint" />
          </mxGeometry>
        </mxCell>
        <mxCell id="MScTOehCrpyFGFz5a2Hk-69" value="Cargar archivos RIPS" style="points=[[0.25,0,0],[0.5,0,0],[0.75,0,0],[1,0.25,0],[1,0.5,0],[1,0.75,0],[0.75,1,0],[0.5,1,0],[0.25,1,0],[0,0.75,0],[0,0.5,0],[0,0.25,0]];shape=mxgraph.bpmn.task;whiteSpace=wrap;rectStyle=rounded;size=10;html=1;container=1;expand=0;collapsible=0;taskMarker=manual;fillColor=#fff2cc;strokeColor=#d6b656;" parent="MScTOehCrpyFGFz5a2Hk-4" vertex="1">
          <mxGeometry x="540" y="60" width="120" height="80" as="geometry" />
        </mxCell>
        <mxCell id="MScTOehCrpyFGFz5a2Hk-87" style="edgeStyle=orthogonalEdgeStyle;rounded=0;orthogonalLoop=1;jettySize=auto;html=1;entryX=0;entryY=0.5;entryDx=0;entryDy=0;entryPerimeter=0;" parent="MScTOehCrpyFGFz5a2Hk-4" source="MScTOehCrpyFGFz5a2Hk-71" target="MScTOehCrpyFGFz5a2Hk-91" edge="1">
          <mxGeometry relative="1" as="geometry">
            <mxPoint x="900" y="290" as="targetPoint" />
          </mxGeometry>
        </mxCell>
        <mxCell id="MScTOehCrpyFGFz5a2Hk-71" value="Validar estructura de los archivos RIPS" style="points=[[0.25,0,0],[0.5,0,0],[0.75,0,0],[1,0.25,0],[1,0.5,0],[1,0.75,0],[0.75,1,0],[0.5,1,0],[0.25,1,0],[0,0.75,0],[0,0.5,0],[0,0.25,0]];shape=mxgraph.bpmn.task;whiteSpace=wrap;rectStyle=rounded;size=10;html=1;container=1;expand=0;collapsible=0;taskMarker=service;fillColor=#fff2cc;strokeColor=#d6b656;" parent="MScTOehCrpyFGFz5a2Hk-4" vertex="1">
          <mxGeometry x="700" y="60" width="135" height="80" as="geometry" />
        </mxCell>
        <mxCell id="MScTOehCrpyFGFz5a2Hk-93" value="No" style="edgeStyle=orthogonalEdgeStyle;rounded=0;orthogonalLoop=1;jettySize=auto;html=1;entryX=0;entryY=0.5;entryDx=0;entryDy=0;entryPerimeter=0;" parent="MScTOehCrpyFGFz5a2Hk-4" source="MScTOehCrpyFGFz5a2Hk-91" target="MScTOehCrpyFGFz5a2Hk-94" edge="1">
          <mxGeometry relative="1" as="geometry">
            <mxPoint x="1020" y="100" as="targetPoint" />
          </mxGeometry>
        </mxCell>
        <mxCell id="MScTOehCrpyFGFz5a2Hk-91" value="&lt;font size=&quot;1&quot;&gt;Cumplen con las&amp;nbsp;&lt;br&gt;validaciones de&amp;nbsp;&lt;br&gt;estructura&lt;br&gt;&lt;/font&gt;" style="points=[[0.25,0.25,0],[0.5,0,0],[0.75,0.25,0],[1,0.5,0],[0.75,0.75,0],[0.5,1,0],[0.25,0.75,0],[0,0.5,0]];shape=mxgraph.bpmn.gateway2;html=1;verticalLabelPosition=bottom;labelBackgroundColor=#ffffff;verticalAlign=top;align=center;perimeter=rhombusPerimeter;outlineConnect=0;outline=none;symbol=none;fillColor=#d5e8d4;strokeColor=#82b366;" parent="MScTOehCrpyFGFz5a2Hk-4" vertex="1">
          <mxGeometry x="880" y="75" width="50" height="50" as="geometry" />
        </mxCell>
        <mxCell id="MScTOehCrpyFGFz5a2Hk-150" style="edgeStyle=orthogonalEdgeStyle;rounded=0;orthogonalLoop=1;jettySize=auto;html=1;" parent="MScTOehCrpyFGFz5a2Hk-4" source="MScTOehCrpyFGFz5a2Hk-94" target="MScTOehCrpyFGFz5a2Hk-151" edge="1">
          <mxGeometry relative="1" as="geometry">
            <mxPoint x="1240" y="100" as="targetPoint" />
          </mxGeometry>
        </mxCell>
        <mxCell id="MScTOehCrpyFGFz5a2Hk-94" value="Generar informe de reporte de errores de estructura" style="points=[[0.25,0,0],[0.5,0,0],[0.75,0,0],[1,0.25,0],[1,0.5,0],[1,0.75,0],[0.75,1,0],[0.5,1,0],[0.25,1,0],[0,0.75,0],[0,0.5,0],[0,0.25,0]];shape=mxgraph.bpmn.task;whiteSpace=wrap;rectStyle=rounded;size=10;html=1;container=1;expand=0;collapsible=0;taskMarker=service;fillColor=#fff2cc;strokeColor=#d6b656;" parent="MScTOehCrpyFGFz5a2Hk-4" vertex="1">
          <mxGeometry x="1060" y="60" width="135" height="80" as="geometry" />
        </mxCell>
        <mxCell id="MScTOehCrpyFGFz5a2Hk-96" style="edgeStyle=orthogonalEdgeStyle;rounded=0;orthogonalLoop=1;jettySize=auto;html=1;" parent="MScTOehCrpyFGFz5a2Hk-4" source="MScTOehCrpyFGFz5a2Hk-90" target="MScTOehCrpyFGFz5a2Hk-95" edge="1">
          <mxGeometry relative="1" as="geometry" />
        </mxCell>
        <mxCell id="MScTOehCrpyFGFz5a2Hk-90" value="Realizar proceso de verificación de las facturas cargadas a eraf" style="points=[[0.25,0,0],[0.5,0,0],[0.75,0,0],[1,0.25,0],[1,0.5,0],[1,0.75,0],[0.75,1,0],[0.5,1,0],[0.25,1,0],[0,0.75,0],[0,0.5,0],[0,0.25,0]];shape=mxgraph.bpmn.task;whiteSpace=wrap;rectStyle=rounded;size=10;html=1;container=1;expand=0;collapsible=0;taskMarker=service;fillColor=#fff2cc;strokeColor=#d6b656;" parent="MScTOehCrpyFGFz5a2Hk-4" vertex="1">
          <mxGeometry x="1060" y="160" width="135" height="80" as="geometry" />
        </mxCell>
        <mxCell id="MScTOehCrpyFGFz5a2Hk-95" value="Clic botón &lt;br&gt;validar" style="points=[[0.145,0.145,0],[0.5,0,0],[0.855,0.145,0],[1,0.5,0],[0.855,0.855,0],[0.5,1,0],[0.145,0.855,0],[0,0.5,0]];shape=mxgraph.bpmn.event;html=1;verticalLabelPosition=bottom;labelBackgroundColor=#ffffff;verticalAlign=top;align=center;perimeter=ellipsePerimeter;outlineConnect=0;aspect=fixed;outline=throwing;symbol=general;fillColor=#d5e8d4;strokeColor=#82b366;" parent="MScTOehCrpyFGFz5a2Hk-4" vertex="1">
          <mxGeometry x="1240" y="175" width="50" height="50" as="geometry" />
        </mxCell>
        <mxCell id="MScTOehCrpyFGFz5a2Hk-151" value="" style="points=[[0.145,0.145,0],[0.5,0,0],[0.855,0.145,0],[1,0.5,0],[0.855,0.855,0],[0.5,1,0],[0.145,0.855,0],[0,0.5,0]];shape=mxgraph.bpmn.event;html=1;verticalLabelPosition=bottom;labelBackgroundColor=#ffffff;verticalAlign=top;align=center;perimeter=ellipsePerimeter;outlineConnect=0;aspect=fixed;outline=end;symbol=terminate2;fillColor=#f8cecc;strokeColor=#b85450;" parent="MScTOehCrpyFGFz5a2Hk-4" vertex="1">
          <mxGeometry x="1240" y="75" width="50" height="50" as="geometry" />
        </mxCell>
        <mxCell id="MScTOehCrpyFGFz5a2Hk-19" value="modulo eraf" style="swimlane;startSize=20;horizontal=0;html=1;" parent="MScTOehCrpyFGFz5a2Hk-1" vertex="1">
          <mxGeometry y="290" width="2090" height="210" as="geometry" />
        </mxCell>
        <mxCell id="MScTOehCrpyFGFz5a2Hk-88" value="Cargar facturas en las tablas temporales" style="points=[[0.25,0,0],[0.5,0,0],[0.75,0,0],[1,0.25,0],[1,0.5,0],[1,0.75,0],[0.75,1,0],[0.5,1,0],[0.25,1,0],[0,0.75,0],[0,0.5,0],[0,0.25,0]];shape=mxgraph.bpmn.task;whiteSpace=wrap;rectStyle=rounded;size=10;html=1;container=1;expand=0;collapsible=0;taskMarker=service;fillColor=#fff2cc;strokeColor=#d6b656;" parent="MScTOehCrpyFGFz5a2Hk-19" vertex="1">
          <mxGeometry x="837.5" y="70" width="135" height="80" as="geometry" />
        </mxCell>
        <mxCell id="MScTOehCrpyFGFz5a2Hk-89" style="edgeStyle=orthogonalEdgeStyle;rounded=0;orthogonalLoop=1;jettySize=auto;html=1;entryX=0;entryY=0.5;entryDx=0;entryDy=0;entryPerimeter=0;" parent="MScTOehCrpyFGFz5a2Hk-1" source="MScTOehCrpyFGFz5a2Hk-88" target="MScTOehCrpyFGFz5a2Hk-90" edge="1">
          <mxGeometry relative="1" as="geometry">
            <mxPoint x="1070" y="400" as="targetPoint" />
          </mxGeometry>
        </mxCell>
        <mxCell id="MScTOehCrpyFGFz5a2Hk-98" style="edgeStyle=orthogonalEdgeStyle;rounded=0;orthogonalLoop=1;jettySize=auto;html=1;" parent="MScTOehCrpyFGFz5a2Hk-1" source="MScTOehCrpyFGFz5a2Hk-95" target="MScTOehCrpyFGFz5a2Hk-97" edge="1">
          <mxGeometry relative="1" as="geometry" />
        </mxCell>
        <mxCell id="MScTOehCrpyFGFz5a2Hk-31" value="modulo efac" style="swimlane;startSize=20;horizontal=0;html=1;" parent="MScTOehCrpyFGFz5a2Hk-1" vertex="1">
          <mxGeometry y="500" width="2090" height="400" as="geometry" />
        </mxCell>
        <mxCell id="MScTOehCrpyFGFz5a2Hk-97" value="Cargar facturas en efac" style="points=[[0.25,0,0],[0.5,0,0],[0.75,0,0],[1,0.25,0],[1,0.5,0],[1,0.75,0],[0.75,1,0],[0.5,1,0],[0.25,1,0],[0,0.75,0],[0,0.5,0],[0,0.25,0]];shape=mxgraph.bpmn.task;whiteSpace=wrap;rectStyle=rounded;size=10;html=1;container=1;expand=0;collapsible=0;taskMarker=service;fillColor=#fff2cc;strokeColor=#d6b656;" parent="MScTOehCrpyFGFz5a2Hk-31" vertex="1">
          <mxGeometry x="1340" y="135" width="135" height="80" as="geometry" />
        </mxCell>
        <mxCell id="MScTOehCrpyFGFz5a2Hk-103" value="No" style="edgeStyle=orthogonalEdgeStyle;rounded=0;orthogonalLoop=1;jettySize=auto;html=1;" parent="MScTOehCrpyFGFz5a2Hk-31" source="MScTOehCrpyFGFz5a2Hk-99" target="MScTOehCrpyFGFz5a2Hk-114" edge="1">
          <mxGeometry relative="1" as="geometry">
            <mxPoint x="1670" y="105" as="targetPoint" />
          </mxGeometry>
        </mxCell>
        <mxCell id="MScTOehCrpyFGFz5a2Hk-131" value="Si" style="edgeStyle=orthogonalEdgeStyle;rounded=0;orthogonalLoop=1;jettySize=auto;html=1;" parent="MScTOehCrpyFGFz5a2Hk-31" source="MScTOehCrpyFGFz5a2Hk-99" target="MScTOehCrpyFGFz5a2Hk-130" edge="1">
          <mxGeometry relative="1" as="geometry" />
        </mxCell>
        <mxCell id="MScTOehCrpyFGFz5a2Hk-99" value="&lt;font size=&quot;1&quot;&gt;Genera glosa de &lt;br&gt;CUPS/CUMS o afiliado &lt;br&gt;fallecido o retirado?&lt;br&gt;&lt;/font&gt;" style="points=[[0.25,0.25,0],[0.5,0,0],[0.75,0.25,0],[1,0.5,0],[0.75,0.75,0],[0.5,1,0],[0.25,0.75,0],[0,0.5,0]];shape=mxgraph.bpmn.gateway2;html=1;verticalLabelPosition=bottom;labelBackgroundColor=#ffffff;verticalAlign=top;align=center;perimeter=rhombusPerimeter;outlineConnect=0;outline=none;symbol=none;fillColor=#d5e8d4;strokeColor=#82b366;" parent="MScTOehCrpyFGFz5a2Hk-31" vertex="1">
          <mxGeometry x="1540" y="150" width="50" height="50" as="geometry" />
        </mxCell>
        <mxCell id="MScTOehCrpyFGFz5a2Hk-100" style="edgeStyle=orthogonalEdgeStyle;rounded=0;orthogonalLoop=1;jettySize=auto;html=1;" parent="MScTOehCrpyFGFz5a2Hk-31" source="MScTOehCrpyFGFz5a2Hk-97" target="MScTOehCrpyFGFz5a2Hk-99" edge="1">
          <mxGeometry relative="1" as="geometry" />
        </mxCell>
        <mxCell id="MScTOehCrpyFGFz5a2Hk-114" value="" style="points=[[0.145,0.145,0],[0.5,0,0],[0.855,0.145,0],[1,0.5,0],[0.855,0.855,0],[0.5,1,0],[0.145,0.855,0],[0,0.5,0]];shape=mxgraph.bpmn.event;html=1;verticalLabelPosition=bottom;labelBackgroundColor=#ffffff;verticalAlign=top;align=center;perimeter=ellipsePerimeter;outlineConnect=0;aspect=fixed;outline=end;symbol=terminate2;fillColor=#f8cecc;strokeColor=#b85450;" parent="MScTOehCrpyFGFz5a2Hk-31" vertex="1">
          <mxGeometry x="1540" y="25" width="50" height="50" as="geometry" />
        </mxCell>
        <mxCell id="MScTOehCrpyFGFz5a2Hk-146" style="edgeStyle=orthogonalEdgeStyle;rounded=0;orthogonalLoop=1;jettySize=auto;html=1;entryX=0;entryY=0.5;entryDx=0;entryDy=0;entryPerimeter=0;" parent="MScTOehCrpyFGFz5a2Hk-31" source="MScTOehCrpyFGFz5a2Hk-117" target="MScTOehCrpyFGFz5a2Hk-17" edge="1">
          <mxGeometry relative="1" as="geometry">
            <mxPoint x="1980" y="95" as="targetPoint" />
          </mxGeometry>
        </mxCell>
        <mxCell id="MScTOehCrpyFGFz5a2Hk-117" value="" style="points=[[0.25,0.25,0],[0.5,0,0],[0.75,0.25,0],[1,0.5,0],[0.75,0.75,0],[0.5,1,0],[0.25,0.75,0],[0,0.5,0]];shape=mxgraph.bpmn.gateway2;html=1;verticalLabelPosition=bottom;labelBackgroundColor=#ffffff;verticalAlign=top;align=center;perimeter=rhombusPerimeter;outlineConnect=0;outline=none;symbol=none;gwType=parallel;fillColor=#d5e8d4;strokeColor=#82b366;" parent="MScTOehCrpyFGFz5a2Hk-31" vertex="1">
          <mxGeometry x="1890" y="150" width="50" height="50" as="geometry" />
        </mxCell>
        <mxCell id="MScTOehCrpyFGFz5a2Hk-17" value="" style="points=[[0.145,0.145,0],[0.5,0,0],[0.855,0.145,0],[1,0.5,0],[0.855,0.855,0],[0.5,1,0],[0.145,0.855,0],[0,0.5,0]];shape=mxgraph.bpmn.event;html=1;verticalLabelPosition=bottom;labelBackgroundColor=#ffffff;verticalAlign=top;align=center;perimeter=ellipsePerimeter;outlineConnect=0;aspect=fixed;outline=end;symbol=terminate;fillColor=#f8cecc;strokeColor=#b85450;" parent="MScTOehCrpyFGFz5a2Hk-31" vertex="1">
          <mxGeometry x="1980" y="150" width="50" height="50" as="geometry" />
        </mxCell>
        <UserObject label="Realizar proceso de glosa de CUPS" link="https://viewer.diagrams.net/?tags=%7B%7D&amp;highlight=0000ff&amp;layers=1&amp;nav=1&amp;title=Glosas%20cups.drawio#R7V3vl5o6Gv5rPGf3Q3sIiOJHddq53W3vzul0296PEaJmB4kNOKP9628SCAKJigrCztAznZGXgJi8z%2FP%2BSPLas6ar7T2F6%2BUX4iG%2FZxretmfd9UwT2IbJ%2FnDJLpbYw0EsWFDsJY32gkf8GyVCI5FusIfCXMOIED%2FC67zQJUGA3Cgng5SSl3yzOfHz77qGC6QIHl3oq9If2IuWiXRoGPsTfyC8WMq3BvLMCsrWiSBcQo%2B8ZETWh541pYRE8avVdop83nuyY%2BLrPh44mz4ZRUFU5gJ8t5j9tJ37u%2B9PT7%2B%2BDu9Hf8zG75K7PEN%2Fk3zie5%2BEkI8YYr%2Bm%2F314TJ4%2B2sk%2BCV%2FwyocBO5oso5XPhIC9dJfY9z7DHdnwpwkj6D7JowlFIRvZB%2FmooCD6Arm%2BGPx%2BhOLfJIigvCu7D40StTDzLR75WyTXvSxxhB7X0OXtXpgqMpnaP%2FLDIhqhbUaU9Nc9IisU0R1rkpy1kqHb5Q9fMpow6CfCZVYLDDnoMNG%2FRXrv%2FQixF8kg6Qfsmfz7z6%2FPG4c%2BLH8E%2FyLh7%2BGP0TvHVkbsT6IMEfKYFieHhEZLsiAB9D%2FspRNKNoGHvKT%2F9m0%2BE7JO%2Bv5%2FKIp2Sd%2FDTUTy4816le5%2BJteLg7%2F4wXtbHt5tsyfvdtmjB0Qx6w9EE6E6Vse0NSQb6qIjnWQnJMOUZ4GiIw2BMYxb8g47qhEU%2BTDCz3la0I2uuHRMKdxlGqwJDqIwc%2BcHLsgoGrBzmjYcGQVNie%2B415v00UqpkrY3TUWTpqy%2FNkiCfw7daENhWJIAjkD1olEuAdOkt8zSuHQqgKX2ma0mIFiyP00VNdp2fRU0%2Bvv1a8GMAorUlCbDPCoMXvygyUWF8asAHn0FHsoYJ7Bmr%2B0J%2BzHegz7D8TT927NZq6k4Ex%2FnZY6tbw2EtHgH2Tr5W7g3KMjkkyit8%2FdmPwy5S7jmn2i1XXAv7v1svQreo2ehVVl944jEzDf6DGfIfyAhjjAJ2LkZiSKyYg18fmLCzPJC6PaU%2BISKnrLm4l%2FmHmMfL%2Fi1Edf1CUyOXPae3ChM1hkDwcaKuXsoYzMmzK3wcYCmqdfHEQTDdXwwx1sOK9kqdkcCD1IuDHerGeGfaIECRDk3TebY97PP6rjIdQWjUfKEMmdmjt23z2AyybCXOhxDldh0tNavi9XM10BrpobXjnoNdfPayDKP8lr8iRReU%2B6TXtgMP5oqQXL%2FAdKc62CggP9igtPsaepIUicbqsKYM83TRBrLhkUOHepIVCczNULtLXUkXnjIw%2BwbwfDpQFxDGclJBKZYm4QxmoBRiMq4%2F8U4kEqvfbtmTJhg0yW%2BD9chnol7cQl%2F2y%2BQPon2IaLPmL%2BzQpDzuaknSG8wGzAY1UeQAOR13ta4fjqKrMLxO0oaGRR8Ix7hmu%2BL3%2B5mJWAQRr2p1RsDBoeBzw3rjAFlsIhESMQb8LcaP%2Fasj2WBUtT2Y1gpg4y0rQKOgzg4pfWHFXwBI%2FQCd2YrPAy6JKvZJjzpYewdioCI8Cd1JpLjAlA8GzleXwcUx5xZgzqBUjQOA1sBiq3BiV0XTqRnk8HJV57EE6k7kdXLg0ac4r4BiyGhONX6ILRsFJq6ddV3st2Ev1ZzJuioOp1MBVllU0G2WbX3d91QqnblO%2BMwT7hXIZYGg50mVCZscthxmdFwsZDHCMu1534BhRFDVueWvWm37DhZlw9cB3lzo0vJSXa6jV%2Bm2ptH3I5o9jpCkzx1mtCs24SzwBrmx76YjqguDtV%2FTnUO61XOiNxKbewbqY0pp7IStQFF3%2FOA3pw7t2IP8u8j55armls52t257HEc982JeLq9bg5%2BbYg88S42GGPWABjrrVAEeV6Gi9%2BlDS8a%2BmJcGdt9n%2BTtPQ8w45bsk8UPEzfv4s43HXdW5AnY%2Fbw1sBoOPJ3hq7D6Vkn6dipPYl%2FnhlkKDzLVjnCwgTSNTNaUuCgkMox5FnGOi3m%2BbGIFUvz1k2YtShesdMHK2RQ1GLYsWAHgdZCUXZKkAHBu42SOCtMF6brCW8Um6mqtKfTdjS%2FYzxfr7PAcsQFwcbzoLp%2BkmVGRoTGew4x4nxXt6LCjw%2BrpEGiWHdyWDx01%2BXla1bu1N%2B1ce4OC3LIbdpMVDlgUZmpQcMnKm4pQ4NjtiltSG1lcm33IckgxM2l4vhdl5gQ6Y9EZi%2BthYrXMWIB0g8VNnWcPhktxfR2eNDDKxvs1uNLXjYahRvzf8Jo7sQuxs0TkNk2%2BstB44HG%2Fh1eY9RpvwP9Dlz0jC%2F89ZUyZghZsYl79NamwRKRYuKIhXGHPE1qhxXtOU2oDFjAKBgiMVAuUoi2LLKsuZNlDZShXxNuIhLJ2RV%2Fb1mT0deSkX5NRmx2X63CyISBFwoqLdV8fPo6n%2FLXYN0fczSoBw8c72QKF8Ty9MZ5%2B%2B%2FT9P7ynRByoWQAAU5h1xr4z9ofgfAYnmXlOajxTNtLkk0uh6fEsNEWEkxO3mexk0l5c3SWhO2zVhC1ga%2Bz9bcGlZis%2FBazzoj2%2BYmAhhg4%2F3ifop6bKTzy4OOKMmM%2F3j%2FCf0jIJoySOO%2Bx02LkaO6bRNrs0aCIGbWLFkRytkzGsdHxPhrCSdloSwY7UqGe8oGhRIEEXrkRUS2YcItDFLNYM5UmKwo2f%2BA2dZ94xYPUMaDltY0CnCQasnLTKTmGPKi8ccV3vjxTSOk003YzZ%2F9eMWZ0TZhdQkN22GTPpFHZOmEJTp%2Fls1Co%2BA7JwWEdor5jQal0CUEFYqZvcvDGlAUXr3zyllZ4alRxS%2F1aWot5IN%2FJGywxH6haosmFmt5mjdZs5Fi%2FfduKzMszwPKtfJ%2Bc5I%2Fu9nVPeUcOcN1J1981THijrxRmt8uJG%2FW4oLx7KyrfvXrckV6329PipidFVB%2BQ2pUKtdm2sAoY6WZcrqBKnLbGYjIMef8V6GbW%2FjsqwdDVPy6jP7VYXoDdTPaAJLktV6%2FQyRVB2jgcYlecXDvjixWoExUrMFe0qHxR2Fg1zm8rPbF7PHvS0uPHFNWR%2BiWLA2dJlRq5WmabKTHG3uTmAK%2B46B7Nw3Su%2Fx7yb%2FXo7s197U3ZxuRldZfYb7%2BBsxNWtntENpyyjy5LldTO6UywtVFzvXHNyJe2S8ps49Tw63yAqOPJYWbuODzs%2BPJ8PlS2cmiTOjQnRUGek99vXckUes8GJEZAOIB1AagdICxwGdV9IVyGqm1Soa1KhtgpRF4CxWCKq3%2FTCEfBmZlnPiQTKLh1Jqaz%2BedYDVUZvFQkAU%2BHsV1BqEm1x9HN%2FOTv6K7X7ONrfiR%2FsMgetSi%2FeqKCQUrXyXclv3bi6aqV1i4whaHYbA2glEcpER2NJ7nN1ZyTveMtks%2Byl6sqVdGFgFwZW7Hkq1Uuaz5OYZhOUe0n1kjMoM%2F2u3gayyFcOh7qU7g2WL7kAWkr9EhOoYd1t65cAs5FJmbqxVX79a8vW9JtlSgP1uToY48T0K1WAtcta3hzYBrZZWLWZfutZc2gDjXxbZM1ZlKsWl6UIPL3aD7QichhaTk6r7CTarTd0MO0mFKfqsQZlZ86rH%2BsDuGWHlPCJgf1o8SDhC%2BFlO6wPfwM%3D" id="MScTOehCrpyFGFz5a2Hk-113">
          <mxCell style="points=[[0.25,0,0],[0.5,0,0],[0.75,0,0],[1,0.25,0],[1,0.5,0],[1,0.75,0],[0.75,1,0],[0.5,1,0],[0.25,1,0],[0,0.75,0],[0,0.5,0],[0,0.25,0]];shape=mxgraph.bpmn.task;whiteSpace=wrap;rectStyle=rounded;size=10;html=1;container=1;expand=0;collapsible=0;taskMarker=abstract;isLoopSub=1;fillColor=#fff2cc;strokeColor=#d6b656;" parent="MScTOehCrpyFGFz5a2Hk-31" vertex="1">
            <mxGeometry x="1710" y="15" width="120" height="80" as="geometry" />
          </mxCell>
        </UserObject>
        <mxCell id="MScTOehCrpyFGFz5a2Hk-142" style="edgeStyle=orthogonalEdgeStyle;rounded=0;orthogonalLoop=1;jettySize=auto;html=1;" parent="MScTOehCrpyFGFz5a2Hk-31" source="MScTOehCrpyFGFz5a2Hk-123" target="MScTOehCrpyFGFz5a2Hk-117" edge="1">
          <mxGeometry relative="1" as="geometry">
            <mxPoint x="1880" y="175" as="targetPoint" />
          </mxGeometry>
        </mxCell>
        <mxCell id="MScTOehCrpyFGFz5a2Hk-123" value="Realizar proceso de glosa de CUMS" style="points=[[0.25,0,0],[0.5,0,0],[0.75,0,0],[1,0.25,0],[1,0.5,0],[1,0.75,0],[0.75,1,0],[0.5,1,0],[0.25,1,0],[0,0.75,0],[0,0.5,0],[0,0.25,0]];shape=mxgraph.bpmn.task;whiteSpace=wrap;rectStyle=rounded;size=10;html=1;container=1;expand=0;collapsible=0;taskMarker=abstract;isLoopSub=1;fillColor=#fff2cc;strokeColor=#d6b656;" parent="MScTOehCrpyFGFz5a2Hk-31" vertex="1">
          <mxGeometry x="1710" y="135" width="120" height="80" as="geometry" />
        </mxCell>
        <mxCell id="MScTOehCrpyFGFz5a2Hk-133" style="edgeStyle=orthogonalEdgeStyle;rounded=0;orthogonalLoop=1;jettySize=auto;html=1;entryX=0;entryY=0.5;entryDx=0;entryDy=0;entryPerimeter=0;" parent="MScTOehCrpyFGFz5a2Hk-31" source="MScTOehCrpyFGFz5a2Hk-130" target="MScTOehCrpyFGFz5a2Hk-113" edge="1">
          <mxGeometry relative="1" as="geometry">
            <Array as="points">
              <mxPoint x="1665" y="55" />
            </Array>
          </mxGeometry>
        </mxCell>
        <mxCell id="MScTOehCrpyFGFz5a2Hk-134" style="edgeStyle=orthogonalEdgeStyle;rounded=0;orthogonalLoop=1;jettySize=auto;html=1;" parent="MScTOehCrpyFGFz5a2Hk-31" source="MScTOehCrpyFGFz5a2Hk-130" target="MScTOehCrpyFGFz5a2Hk-123" edge="1">
          <mxGeometry relative="1" as="geometry" />
        </mxCell>
        <mxCell id="MScTOehCrpyFGFz5a2Hk-136" style="edgeStyle=orthogonalEdgeStyle;rounded=0;orthogonalLoop=1;jettySize=auto;html=1;entryX=0;entryY=0.5;entryDx=0;entryDy=0;entryPerimeter=0;exitX=0.5;exitY=1;exitDx=0;exitDy=0;exitPerimeter=0;" parent="MScTOehCrpyFGFz5a2Hk-31" source="MScTOehCrpyFGFz5a2Hk-130" target="MScTOehCrpyFGFz5a2Hk-135" edge="1">
          <mxGeometry relative="1" as="geometry">
            <Array as="points">
              <mxPoint x="1665" y="300" />
            </Array>
          </mxGeometry>
        </mxCell>
        <mxCell id="MScTOehCrpyFGFz5a2Hk-130" value="" style="points=[[0.25,0.25,0],[0.5,0,0],[0.75,0.25,0],[1,0.5,0],[0.75,0.75,0],[0.5,1,0],[0.25,0.75,0],[0,0.5,0]];shape=mxgraph.bpmn.gateway2;html=1;verticalLabelPosition=bottom;labelBackgroundColor=#ffffff;verticalAlign=top;align=center;perimeter=rhombusPerimeter;outlineConnect=0;outline=none;symbol=none;gwType=exclusive;fillColor=#d5e8d4;strokeColor=#82b366;" parent="MScTOehCrpyFGFz5a2Hk-31" vertex="1">
          <mxGeometry x="1640" y="150" width="50" height="50" as="geometry" />
        </mxCell>
        <mxCell id="MScTOehCrpyFGFz5a2Hk-147" style="edgeStyle=orthogonalEdgeStyle;rounded=0;orthogonalLoop=1;jettySize=auto;html=1;" parent="MScTOehCrpyFGFz5a2Hk-31" source="MScTOehCrpyFGFz5a2Hk-135" target="MScTOehCrpyFGFz5a2Hk-117" edge="1">
          <mxGeometry relative="1" as="geometry" />
        </mxCell>
        <mxCell id="MScTOehCrpyFGFz5a2Hk-135" value="Realizar proceso de glosa afiliado fallecido o retirao" style="points=[[0.25,0,0],[0.5,0,0],[0.75,0,0],[1,0.25,0],[1,0.5,0],[1,0.75,0],[0.75,1,0],[0.5,1,0],[0.25,1,0],[0,0.75,0],[0,0.5,0],[0,0.25,0]];shape=mxgraph.bpmn.task;whiteSpace=wrap;rectStyle=rounded;size=10;html=1;container=1;expand=0;collapsible=0;taskMarker=abstract;isLoopSub=1;fillColor=#fff2cc;strokeColor=#d6b656;" parent="MScTOehCrpyFGFz5a2Hk-31" vertex="1">
          <mxGeometry x="1710" y="260" width="120" height="80" as="geometry" />
        </mxCell>
        <mxCell id="MScTOehCrpyFGFz5a2Hk-141" value="" style="edgeStyle=orthogonalEdgeStyle;rounded=0;orthogonalLoop=1;jettySize=auto;html=1;entryX=0.5;entryY=0;entryDx=0;entryDy=0;entryPerimeter=0;" parent="MScTOehCrpyFGFz5a2Hk-31" source="MScTOehCrpyFGFz5a2Hk-113" target="MScTOehCrpyFGFz5a2Hk-117" edge="1">
          <mxGeometry relative="1" as="geometry">
            <mxPoint x="1850" y="565" as="sourcePoint" />
            <mxPoint x="1905" y="150" as="targetPoint" />
          </mxGeometry>
        </mxCell>
      </root>
    </mxGraphModel>
  </diagram>
</mxfile>
